/* XPM */ 
static const char * icon7_xpm[] = {
"32 32 3 1",
" 	c None",
"!	c black",
"#	c #D93600",
"            !                   ",
"           !#!                  ",
"          !###!                 ",
"         !#####!                ",
"        !#######!               ",
"       !#######!      !         ",
"      !#######!      !#!        ",
"     !#######!      !###!       ",
"    !#######!      !#####!      ",
"   !#######!      !#####!       ",
"  !#######!      !#####!        ",
" !#######!!!!!!!!#####!         ",
"!#######! !      !###!          ",
" !#####!  !       !#!           ",
"  !###!   !        !            ",
"   !#!    !            !        ",
"    !     !           !#!       ",
"          !          !###!      ",
"          !         !#####!     ",
"          !        !#######!    ",
"          !       !#######!     ",
"          !      !#######!      ",
"          !!!!!!!#######!       ",
"               !#######!        ",
"              !#######!         ",
"               !#####!          ",
"                !###!           ",
"                 !#!            ",
"                  !             ",
"                                ",
"                                ",
"                                "};
